:FULLY-SPECIFIED
:FORCE-ALL-JOINTS-BE-3DOF
:DEGREES
97
root 9.28866 16.2583 -23.5145 4.4727 -2.74043 3.45848
lfemur -4.07265 2.12208 -27.3229
ltibia 18.0163 -0 0
lfoot -15.4175 6.10449 0.000107757
ltoes -2.80498 0 0
rfemur -29.7732 5.08325 14.0549
rtibia 49.316 -0 0
rfoot -19.5144 -12.8079 0.00882532
rtoes -14.5277 0 0
lowerback -6.18761 -2.07047 -4.79227
upperback -1.39538 -2.50898 2.40835
thorax 2.35998 -1.29148 4.94018
lowerneck -21.398 -4.46556 -12.2117
upperneck 20.2414 -5.14435 11.6576
head 10.6823 -1.93819 5.48193
lclavicle -4.69753e-14 -1.90833e-14 0
lhumerus -27.4212 -17.5577 90.1743
lradius 31.6047 -0 0
lwrist 4.90239 0 0
lhand -10.4244 -23.4398 0.00269729
lfingers 7.12502 -0 0
lthumb 15.5749 5.95249 0.00245039
rclavicle -4.69753e-14 -1.90833e-14 0
rhumerus -44.8794 11.3908 -86.9555
rradius 37.8468 -0 0
rwrist -20.5267 0 0
rhand -30.3589 -23.2286 -0.000142716
rfingers 7.12502 -0 0
rthumb -3.66399 -53.1764 -0.000166307
98
root 9.28616 16.2493 -23.3855 4.50216 -2.4035 3.52768
lfemur -3.26501 2.08142 -27.3277
ltibia 17.349 -0 0
lfoot -15.4177 5.87759 0.00011118
ltoes -2.93812 0 0
rfemur -30.2214 5.34726 13.7438
rtibia 48.4548 -0 0
rfoot -19.6887 -12.8232 0.00910557
rtoes -14.7896 0 0
lowerback -6.26993 -2.13254 -4.85467
upperback -1.38759 -2.58363 2.39715
thorax 2.42604 -1.33105 4.95281
lowerneck -21.3295 -4.49981 -12.2503
upperneck 20.2769 -5.18552 11.6367
head 10.6887 -1.96468 5.47517
lclavicle -4.69753e-14 -1.90833e-14 0
lhumerus -27.4756 -17.8809 90.3958
lradius 31.9423 -0 0
lwrist 5.11407 0 0
lhand -10.4495 -23.4724 0.00278292
lfingers 7.12502 -0 0
lthumb 15.5507 5.92169 0.00252818
rclavicle -4.69753e-14 -1.90833e-14 0
rhumerus -44.9558 11.2225 -86.8082
rradius 37.6916 -0 0
rwrist -20.4408 0 0
rhand -30.3352 -23.2304 -0.000147247
rfingers 7.12502 -0 0
rthumb -3.64115 -53.1786 -0.000171587
99
root 9.28367 16.2402 -23.2564 4.53202 -2.06661 3.59703
lfemur -2.45739 2.04083 -27.3331
ltibia 16.6818 -0 0
lfoot -15.4178 5.6507 0.000114032
ltoes -3.07126 0 0
rfemur -30.6714 5.60884 13.4305
rtibia 47.5936 -0 0
rfoot -19.863 -12.8386 0.00933912
rtoes -15.0515 0 0
lowerback -6.35219 -2.1947 -4.91698
upperback -1.37977 -2.65827 2.38594
thorax 2.4921 -1.37064 4.96539
lowerneck -21.2608 -4.53401 -12.289
upperneck 20.3125 -5.22668 11.6159
head 10.6951 -1.99117 5.46841
lclavicle -4.69753e-14 -1.90833e-14 0
lhumerus -27.5315 -18.2039 90.618
lradius 32.2799 -0 0
lwrist 5.32575 0 0
lhand -10.4745 -23.5051 0.00285428
lfingers 7.12502 -0 0
lthumb 15.5266 5.89089 0.002593
rclavicle -4.69753e-14 -1.90833e-14 0
rhumerus -45.0325 11.0543 -86.6607
rradius 37.5364 -0 0
rwrist -20.3549 0 0
rhand -30.3116 -23.2323 -0.000151022
rfingers 7.12502 -0 0
rthumb -3.61831 -53.1808 -0.000175987
100
root 9.28117 16.2312 -23.1274 4.56228 -1.72976 3.66654
lfemur -1.64978 2.00032 -27.339
ltibia 16.0145 -0 0
lfoot -15.4179 5.4238 0.000116314
ltoes -3.2044 0 0
rfemur -31.1229 5.86795 13.1151
rtibia 46.7324 -0 0
rfoot -20.0373 -12.8539 0.00952596
rtoes -15.3135 0 0
lowerback -6.43439 -2.25695 -4.9792
upperback -1.37195 -2.73291 2.37472
thorax 2.55814 -1.41024 4.97794
lowerneck -21.1922 -4.56816 -12.3276
upperneck 20.3481 -5.26782 11.595
head 10.7015 -2.01766 5.46165
lclavicle -4.69753e-14 -1.90833e-14 0
lhumerus -27.5888 -18.5268 90.841
lradius 32.6175 -0 0
lwrist 5.53743 0 0
lhand -10.4996 -23.5378 0.00291137
lfingers 7.12502 -0 0
lthumb 15.5025 5.86008 0.00264486
rclavicle -4.69753e-14 -1.90833e-14 0
rhumerus -45.1096 10.8864 -86.5131
rradius 37.3812 -0 0
rwrist -20.269 0 0
rhand -30.2879 -23.2341 -0.000154043
rfingers 7.12502 -0 0
rthumb -3.59547 -53.183 -0.000179506
101
root 9.27868 16.2222 -22.9984 4.59295 -1.39294 3.73622
lfemur -0.84219 1.9599 -27.3456
ltibia 15.3472 -0 0
lfoot -15.4181 5.19691 0.000118025
ltoes -3.33754 0 0
rfemur -31.5761 6.12458 12.7974
rtibia 45.8712 -0 0
rfoot -20.2116 -12.8693 0.0096661
rtoes -15.5754 0 0
lowerback -6.51652 -2.31929 -5.04134
upperback -1.36411 -2.80755 2.36349
thorax 2.62418 -1.44986 4.99043
lowerneck -21.1235 -4.60227 -12.3664
upperneck 20.3837 -5.30896 11.5741
head 10.7079 -2.04415 5.45489
lclavicle -4.69753e-14 -1.90833e-14 0
lhumerus -27.6476 -18.8494 91.0647
lradius 32.9551 -0 0
lwrist 5.7491 0 0
lhand -10.5246 -23.5704 0.00295418
lfingers 7.12502 -0 0
lthumb 15.4784 5.82928 0.00268376
rclavicle -4.69753e-14 -1.90833e-14 0
rhumerus -45.1871 10.7187 -86.3653
rradius 37.226 -0 0
rwrist -20.1831 0 0
rhand -30.2643 -23.2359 -0.000156308
rfingers 7.12502 -0 0
rthumb -3.57263 -53.1852 -0.000182146
